<svg viewBox="0 0 30 30" xmlns="http://www.w3.org/2000/svg"><g fill="none" fill-rule="evenodd"><path d="M0 0h30v30H0z"/><path d="M17.757 5.819c0 1.557-1.234 2.818-2.757 2.818-1.523 0-2.757-1.261-2.757-2.818C12.243 4.26 13.477 3 15 3c1.523 0 2.757 1.261 2.757 2.819M7.646 8.637c0 1.558-1.233 2.819-2.757 2.819-1.522 0-2.757-1.261-2.757-2.819 0-1.557 1.235-2.818 2.757-2.818 1.524 0 2.757 1.261 2.757 2.818m20.222 0c0 1.558-1.235 2.819-2.757 2.819-1.524 0-2.757-1.261-2.757-2.819 0-1.557 1.233-2.818 2.757-2.818 1.522 0 2.757 1.261 2.757 2.818m-2.758 4.699c-.826 0-1.562.281-2.296.657l-7.812 4.698-7.812-4.698c-.738-.376-1.474-.657-2.3-.657-2.574 0-4.597 2.066-4.597 4.698v7.517h9.19v-5.826l4.597 2.819c.184.093.276.188.46.188s.276.094.46.094.276 0 .46-.094c.185 0 .276-.093.46-.188l4.597-2.819-.002 5.824h9.19v-7.517c0-2.63-2.021-4.696-4.594-4.696z" fill="currentColor"/><path d="M15 16.53l4.412-2.63A4.591 4.591 0 0 0 15 10.61c-2.115 0-3.769 1.41-4.412 3.29L15 16.53z" fill="currentColor"/></g></svg>