<svg viewBox="0 0 20 35" xmlns="http://www.w3.org/2000/svg"><path d="M.352 9.344a.847.847 0 0 0-.287.467.78.78 0 0 0 .058.528C4.359 18.7 8.78 27.383 12.43 34.57a.53.53 0 0 0 .364.297.585.585 0 0 0 .47-.122.85.85 0 0 0 .295-.47.775.775 0 0 0-.058-.534L6.675 20.3l12.879-9.97a.824.824 0 0 0 .251-.335.866.866 0 0 0 .06-.422.659.659 0 0 0-.152-.359.51.51 0 0 0-.313-.17l-5.904-.786 1.968-6.971a.84.84 0 0 0 .01-.42.617.617 0 0 0-.195-.324.495.495 0 0 0-.333-.116.61.61 0 0 0-.355.134l-12.878 9.97-.52-1.024a.527.527 0 0 0-.37-.295.587.587 0 0 0-.472.13l.001.001z" fill="currentColor" fill-rule="evenodd"/></svg>