<svg viewBox="0 0 14 12" xmlns="http://www.w3.org/2000/svg"><path d="M13.943 4.255c-.01.042-.021.085-.028.128a5.211 5.211 0 0 1-.653 1.935 9.04 9.04 0 0 1-.993 1.334 16.035 16.035 0 0 1-1.533 1.536c-.5.435-1.01.861-1.534 1.254-.697.525-1.422 1.017-2.133 1.526a.128.128 0 0 1-.17 0c-.626-.44-1.269-.862-1.878-1.326a45.188 45.188 0 0 1-1.874-1.534 13.587 13.587 0 0 1-2.092-2.23 5.277 5.277 0 0 1-.942-2.092A6.298 6.298 0 0 1 0 4.274v-.643l.024-.107c.061-.279.1-.558.188-.836A3.8 3.8 0 0 1 1.988.519 3.808 3.808 0 0 1 4.601.064 3.837 3.837 0 0 1 6.86 1.318a.74.74 0 0 1 .074.126c.152-.152.265-.27.383-.38a3.929 3.929 0 0 1 5.346-.017 3.852 3.852 0 0 1 1.15 1.93c.061.212.09.433.13.654v.624z" fill="currentColor" fill-rule="evenodd"/></svg>