<svg viewBox="0 0 30 29" xmlns="http://www.w3.org/2000/svg"><path d="M26.18 21.682a2.915 2.915 0 0 0-.79.101l-2.432-4.69c.903-1.065 1.144-2.626.614-3.964-.53-1.338-1.728-2.196-3.045-2.177l-.73.101-2.584-4.96c.873-1.069 1.096-2.607.57-3.925C17.257.85 16.081 0 14.782 0s-2.476.85-3.001 2.168c-.526 1.318-.303 2.856.57 3.925l-2.584 4.96-.729-.101c-1.317-.019-2.516.84-3.046 2.177-.53 1.338-.288 2.899.615 3.964l-2.463 4.723c-1.276-.391-2.639.107-3.457 1.264-.817 1.156-.928 2.746-.281 4.029s1.924 2.008 3.24 1.84c1.316-.168 2.411-1.197 2.778-2.61h5.167C11.988 27.913 13.28 29 14.752 29c1.471 0 2.764-1.087 3.16-2.661h5.076c.345 1.322 1.332 2.317 2.55 2.569 1.22.253 2.464-.28 3.215-1.375.751-1.097.882-2.569.337-3.806-.544-1.238-1.67-2.029-2.911-2.045zM13.9 7.172a2.916 2.916 0 0 0 1.763 0l2.523 4.859h-.001a3.727 3.727 0 0 0-.669 1.046h-5.47a3.702 3.702 0 0 0-.669-1.046L13.9 7.173zm-2.28 17.142H6.425a3.766 3.766 0 0 0-.7-1.418l2.463-4.758c.277.087.563.133.851.135l.669-.067 2.522 4.826a3.796 3.796 0 0 0-.607 1.282zm4.225-2.43a2.947 2.947 0 0 0-2.128 0l-2.4-4.623a3.806 3.806 0 0 0 .972-2.159h4.984a3.8 3.8 0 0 0 .973 2.16l-2.401 4.623zm7.142 2.43h-5.045a3.796 3.796 0 0 0-.607-1.282l2.521-4.826.669.067c.288-.002.574-.048.85-.134l2.401 4.657h.002c-.36.43-.621.951-.76 1.518h-.031z" fill="currentColor" fill-rule="evenodd"/></svg>