<svg viewBox="0 0 22 18" xmlns="http://www.w3.org/2000/svg"><path d="M22 2.13c-.81.362-1.68.606-2.593.716A4.552 4.552 0 0 0 21.392.332a9.015 9.015 0 0 1-2.866 1.103A4.494 4.494 0 0 0 15.232 0c-2.493 0-4.514 2.034-4.514 4.544 0 .356.04.703.117 1.036-3.752-.19-7.077-2-9.303-4.749A4.55 4.55 0 0 0 .92 3.116a4.55 4.55 0 0 0 2.007 3.782A4.467 4.467 0 0 1 .884 6.33v.057a4.539 4.539 0 0 0 3.62 4.456 4.493 4.493 0 0 1-2.038.078 4.522 4.522 0 0 0 4.216 3.156 9.017 9.017 0 0 1-5.605 1.945C.712 16.022.353 16 0 15.959A12.716 12.716 0 0 0 6.919 18c8.302 0 12.842-6.925 12.842-12.93 0-.196-.004-.392-.013-.587A9.189 9.189 0 0 0 22 2.13" fill="currentColor" fill-rule="evenodd"/></svg>