<svg viewBox="0 0 34 33" xmlns="http://www.w3.org/2000/svg"><g fill="currentColor"><path d="M13.998.639a.732.732 0 0 0-.669.727v2.182h-1.476a.75.75 0 0 0-.07 0 .732.732 0 0 0-.669.727v9.454c0 .402.33.727.739.727h1.476v1.455H7.792a.75.75 0 0 0-.07 0 .745.745 0 0 0-.38.148l-6.276 4.727a.723.723 0 0 0 0 1.148l6.276 4.727c.128.1.286.156.45.159h5.537v5.09c0 .402.33.728.739.728h5.906a.733.733 0 0 0 .739-.727V26.82h1.477a.733.733 0 0 0 .738-.727v-9.455a.733.733 0 0 0-.738-.727h-1.477v-1.455h5.538a.745.745 0 0 0 .45-.159l6.276-4.727a.723.723 0 0 0 0-1.147L26.7 3.695a.746.746 0 0 0-.45-.147h-5.537V1.366a.733.733 0 0 0-.739-.727h-5.906a.75.75 0 0 0-.07 0zm.808 1.454h4.43v1.455h-4.43V2.093zm0 12.363h4.43v1.455h-4.43v-1.455zm0 12.364h4.43v4.363h-4.43V26.82z"/><path d="M12.59 5.002h13.418l5.307 4-5.318 4H12.59zM8.034 17.365H21.45v8H8.045l-5.318-4 5.307-4z"/></g></svg>