<?xml version="1.0" standalone="no"?>
<!DOCTYPE svg PUBLIC "-//W3C//DTD SVG 20010904//EN"
 "http://www.w3.org/TR/2001/REC-SVG-20010904/DTD/svg10.dtd">
<svg version="1.0" xmlns="http://www.w3.org/2000/svg"
 width="72.000000pt" height="72.000000pt" viewBox="0 0 72.000000 72.000000"
 preserveAspectRatio="xMidYMid meet">
<metadata>
Created by potrace 1.11, written by Peter Selinger 2001-2013
</metadata>
<g transform="translate(0.000000,72.000000) scale(0.100000,-0.100000)"
fill="#000000" stroke="none">
<path d="M333 702 l-43 -3 0 -59 c0 -37 -4 -60 -12 -63 -7 -3 -34 16 -60 41
l-47 45 -63 -38 c-35 -21 -65 -40 -67 -42 -3 -2 15 -23 39 -48 l43 -44 -29
-24 c-16 -14 -44 -45 -61 -70 l-33 -45 61 -65 60 -66 -42 -40 -43 -40 25 -19
c13 -11 43 -30 66 -43 l43 -23 43 42 c62 60 77 57 77 -18 0 -33 3 -61 8 -61 4
-1 37 -2 75 -3 75 -1 72 -6 68 87 -2 51 21 49 76 -5 l44 -43 42 23 c23 12 53
31 67 42 l25 19 -43 44 -44 44 24 19 c36 29 88 97 88 115 0 9 -24 42 -54 75
l-54 59 41 43 c35 36 39 45 27 52 -8 5 -39 24 -67 40 l-53 31 -45 -45 c-52
-51 -78 -52 -74 -2 5 74 1 84 -33 87 -18 2 -52 3 -75 1z"/>
</g>
</svg>
